<svg xmlns="http://www.w3.org/2000/svg" viewBox="0 0 24 24">
<path d="M7.33,9.12L9.45,7l1.44,1.44l-0.34,0.34L9.5,7.73L8.96,8.27L9.89,9.2L9.55,9.54L8.62,8.61l-0.9,0.9L7.33,9.12z  M11.37,9.58l-0.7,0.7l0.5,0.5c0.21,0.21,0.5,0.23,0.72,0.02c0.21-0.21,0.19-0.51-0.01-0.72L11.37,9.58z M10.51,12.3l0.23-1.27 l-0.41-0.41l-0.75,0.75L9.2,10.99l2.12-2.12l0.89,0.89c0.45,0.45,0.48,1.02,0.06,1.44c-0.32,0.32-0.72,0.37-1.09,0.18l-0.23,1.35 L10.51,12.3z M11.28,13.07l2.12-2.12l1.44,1.44l-0.34,0.34l-1.05-1.05l-0.51,0.51l0.93,0.93l-0.34,0.34l-0.93-0.93l-0.59,0.59 l1.05,1.05l-0.34,0.34L11.28,13.07z M13.15,14.94l2.12-2.12l1.44,1.44l-0.34,0.34l-1.05-1.05l-0.51,0.51l0.93,0.93l-0.34,0.34 l-0.93-0.93l-0.59,0.59l1.05,1.05l-0.34,0.34L13.15,14.94z M21.41,11.58l-9-9C12.05,2.22,11.55,2,11,2H4C2.9,2,2,2.9,2,4v7 c0,0.55,0.22,1.05,0.59,1.42l9,9C11.95,21.78,12.45,22,13,22s1.05-0.22,1.41-0.59l7-7C21.78,14.05,22,13.55,22,13 S21.77,11.94,21.41,11.58z M13,20.01L4,11V4h7V3.99l9,9L13,20.01z M6.5,8C7.33,8,8,7.33,8,6.5S7.33,5,6.5,5S5,5.67,5,6.5 S5.67,8,6.5,8z"/>
</svg>