<svg xmlns="http://www.w3.org/2000/svg" viewBox="0 0 24 24">
<path d="M10.01,6.2L8.36,4.55C9.51,4.18,10.73,3.98,12,3.98c5,0,9.27,3.11,11,7.5c-0.69,1.76-1.79,3.3-3.18,4.53 l-1.41-1.41c0.99-0.85,1.82-1.9,2.41-3.12c-1.65-3.37-5.03-5.5-8.82-5.5C11.32,5.98,10.66,6.07,10.01,6.2z M10.93,7.12L13,9.19 c0.57,0.25,1.03,0.71,1.28,1.28l2.07,2.07c0.08-0.34,0.14-0.7,0.14-1.07C16.5,8.99,14.48,6.98,12,6.98 C11.63,6.98,11.28,7.03,10.93,7.12z M3.42,2.43l17.73,17.74l-1.41,1.41l-3.42-3.42c-1.34,0.53-2.8,0.82-4.32,0.82 c-5,0-9.27-3.11-11-7.5c0.77-1.97,2.06-3.67,3.69-4.95L2.01,3.85L3.42,2.43z M9.5,11.47c0,1.38,1.12,2.5,2.5,2.5 c0.04,0,0.08-0.01,0.12-0.02l-2.61-2.61C9.51,11.4,9.5,11.42,9.5,11.47z M3.18,11.47c1.65,3.37,5.03,5.5,8.82,5.5 c0.95,0,1.87-0.14,2.75-0.38l-0.98-0.98c-0.54,0.23-1.14,0.36-1.77,0.36c-2.48,0-4.5-2.02-4.5-4.5c0-0.63,0.13-1.23,0.36-1.78 L6.11,7.95C4.9,8.87,3.88,10.04,3.18,11.47z"/>
</svg>